# xmcd CD database file
#
# Track frame offsets:
#	150
#	12418
#	28745
#	41463
#	59218
#	80215
#	93190
#	111400
#	129628
#	145968
#
# Disc length: 2177 seconds
#
# Revision: 0
# Processed by: cddbd v1.5.1PL0 Copyright (c) Steve Scherf et al.
# Submitted via: CDex 1.51
#
DISCID=91087f0a
DTITLE=Calfornia Cowboys - Calfornia Cowboys
DYEAR=1996
DGENRE=Country
TTITLE0=Goin' To The City
TTITLE1=There Ain't Nothin
TTITLE2=Double Shot Of Hank
TTITLE3=Way Out In Waco
TTITLE4=US
TTITLE5=One Woman Man
TTITLE6=Wild Women and Whiskey
TTITLE7=Delta Red
TTITLE8=The Way I Am
TTITLE9=We Ride 'Em, We Rope 'Em
EXTD=YEAR: 1996
EXTT0=
EXTT1=
EXTT2=
EXTT3=
EXTT4=
EXTT5=
EXTT6=
EXTT7=
EXTT8=
EXTT9=
PLAYORDER=
